<svg width="29" height="26" viewBox="0 0 29 26" fill="none" xmlns="http://www.w3.org/2000/svg">
<path d="M5.43343 7.19515C4.99478 7.19515 4.59943 6.92232 4.50171 6.52248L4.32536 5.80273C4.09489 4.86208 3.14821 4.17914 2.07419 4.17914H1.11414C0.586684 4.17914 0.15918 3.79586 0.15918 3.32297C0.15918 2.85008 0.586684 2.4668 1.11414 2.4668H2.07419C4.03855 2.4668 5.76989 3.71538 6.19103 5.43543L6.36738 6.1549C6.48038 6.61695 6.15474 7.07329 5.63938 7.17489C5.57031 7.18887 5.50123 7.19515 5.43343 7.19515Z" fill="#B9FFE7"/>
<path d="M20.6987 21.1738C20.6971 21.135 20.692 21.0967 20.692 21.0576C20.692 20.4669 20.8935 19.9175 21.2379 19.4614H13.7686C14.113 19.9172 14.3142 20.4669 14.3142 21.0576C14.3142 21.0967 14.3094 21.135 14.3075 21.1738H20.6987Z" fill="#B9FFE7"/>
<path d="M7.94821 21.0576C7.94821 20.4637 8.15193 19.9117 8.49986 19.4545C8.05166 19.4194 7.69801 19.0849 7.69801 18.6743C7.69801 18.2402 8.09177 17.8871 8.57594 17.8871C9.10339 17.8871 9.5309 17.5039 9.5309 17.031C9.5309 16.5581 9.10339 16.1748 8.57594 16.1748C7.03845 16.1748 5.78809 17.2961 5.78809 18.6743C5.78809 19.8598 6.71408 20.8529 7.95139 21.1081C7.95075 21.0912 7.94821 21.0747 7.94821 21.0576Z" fill="#B9FFE7"/>
<path d="M24.5664 17.8871H8.05165C7.60313 17.8871 7.2151 17.6074 7.11897 17.2147L4.50174 6.52259C4.43967 6.26945 4.50906 6.0046 4.69019 5.80255C4.87163 5.60049 5.14507 5.48291 5.43442 5.48291H27.8531C28.1246 5.48291 28.3831 5.58651 28.5642 5.76773C28.745 5.94895 28.8319 6.19068 28.8023 6.43269L27.7092 15.3617C27.5332 16.8012 26.1819 17.8871 24.5664 17.8871ZM8.81976 16.1748H24.5664C25.2062 16.1748 25.741 15.7447 25.8107 15.1745L26.7873 7.19497H6.62175L8.81976 16.1748Z" fill="#B9FFE7"/>
<path d="M17.2977 17.8874C16.7703 17.8874 16.3428 17.5041 16.3428 17.0312V6.33908C16.3428 5.86619 16.7703 5.48291 17.2977 5.48291C17.8252 5.48291 18.2527 5.86619 18.2527 6.33908V17.0312C18.2527 17.5041 17.8252 17.8874 17.2977 17.8874Z" fill="#B9FFE7"/>
<path d="M21.8789 17.8871C21.8528 17.8871 21.8263 17.8862 21.7996 17.8842C21.274 17.8451 20.8828 17.4319 20.9261 16.9607L21.9075 6.26854C21.9508 5.79765 22.4066 5.44605 22.9376 5.48543C23.4631 5.52425 23.8544 5.93749 23.8111 6.40896L22.8297 17.1011C22.7889 17.5483 22.371 17.8871 21.8789 17.8871Z" fill="#B9FFE7"/>
<path d="M12.7165 17.8874C12.2358 17.8874 11.822 17.5629 11.7685 17.1246L10.4599 6.43241C10.4023 5.96238 10.7808 5.53971 11.305 5.48806C11.8293 5.43669 12.3007 5.77573 12.3584 6.24577L13.667 16.9379C13.7246 17.4077 13.3461 17.8309 12.8218 17.8826C12.7865 17.8857 12.7515 17.8874 12.7165 17.8874Z" fill="#B9FFE7"/>
<path d="M27.1986 12.541H6.74305C6.21559 12.541 5.78809 12.1577 5.78809 11.6848C5.78809 11.2119 6.21559 10.8286 6.74305 10.8286H27.1989C27.7264 10.8286 28.1539 11.2119 28.1539 11.6848C28.1539 12.1577 27.7264 12.541 27.1986 12.541Z" fill="#B9FFE7"/>
<path d="M11.1316 23.0541C12.3622 23.0541 13.3598 22.1596 13.3598 21.0563C13.3598 19.953 12.3622 19.0586 11.1316 19.0586C9.90094 19.0586 8.90332 19.953 8.90332 21.0563C8.90332 22.1596 9.90094 23.0541 11.1316 23.0541Z" fill="#299D6F"/>
<path d="M23.8737 23.0541C25.1044 23.0541 26.102 22.1596 26.102 21.0563C26.102 19.953 25.1044 19.0586 23.8737 19.0586C22.6431 19.0586 21.6455 19.953 21.6455 21.0563C21.6455 22.1596 22.6431 23.0541 23.8737 23.0541Z" fill="#299D6F"/>
</svg>
