<svg width="29" height="26" viewBox="0 0 29 26" fill="none" xmlns="http://www.w3.org/2000/svg">
<path d="M5.43367 7.19515C4.99503 7.19515 4.59967 6.92232 4.50195 6.52248L4.3256 5.80273C4.09514 4.86208 3.14845 4.17914 2.07444 4.17914H1.11438C0.586928 4.17914 0.159424 3.79586 0.159424 3.32297C0.159424 2.85008 0.586928 2.4668 1.11438 2.4668H2.07444C4.03879 2.4668 5.77014 3.71538 6.19128 5.43543L6.36762 6.1549C6.48063 6.61695 6.15499 7.07329 5.63963 7.17489C5.57055 7.18887 5.50148 7.19515 5.43367 7.19515Z" fill="#00462D"/>
<path d="M20.6994 21.1738C20.6978 21.135 20.6928 21.0967 20.6928 21.0576C20.6928 20.4669 20.8943 19.9175 21.2387 19.4614H13.7693C14.1137 19.9172 14.3149 20.4669 14.3149 21.0576C14.3149 21.0967 14.3101 21.135 14.3082 21.1738H20.6994Z" fill="#00462D"/>
<path d="M7.94845 21.0576C7.94845 20.4637 8.15218 19.9117 8.5001 19.4545C8.05191 19.4194 7.69825 19.0849 7.69825 18.6743C7.69825 18.2402 8.09201 17.8871 8.57618 17.8871C9.10364 17.8871 9.53114 17.5039 9.53114 17.031C9.53114 16.5581 9.10364 16.1748 8.57618 16.1748C7.03869 16.1748 5.78833 17.2961 5.78833 18.6743C5.78833 19.8598 6.71432 20.8529 7.95163 21.1081C7.951 21.0912 7.94845 21.0747 7.94845 21.0576Z" fill="#00462D"/>
<path d="M24.5667 17.8871H8.05189C7.60338 17.8871 7.21535 17.6074 7.11921 17.2147L4.50198 6.52259C4.43991 6.26945 4.50931 6.0046 4.69043 5.80255C4.87187 5.60049 5.14531 5.48291 5.43466 5.48291H27.8533C28.1249 5.48291 28.3833 5.58651 28.5645 5.76773C28.7453 5.94895 28.8322 6.19068 28.8026 6.43269L27.7094 15.3617C27.5334 16.8012 26.1821 17.8871 24.5667 17.8871ZM8.82 16.1748H24.5667C25.2065 16.1748 25.7413 15.7447 25.811 15.1745L26.7876 7.19497H6.622L8.82 16.1748Z" fill="#00462D"/>
<path d="M17.2985 17.8874C16.771 17.8874 16.3435 17.5041 16.3435 17.0312V6.33908C16.3435 5.86619 16.771 5.48291 17.2985 5.48291C17.8259 5.48291 18.2534 5.86619 18.2534 6.33908V17.0312C18.2534 17.5041 17.8259 17.8874 17.2985 17.8874Z" fill="#00462D"/>
<path d="M21.8793 17.8871C21.8532 17.8871 21.8268 17.8862 21.8001 17.8842C21.2745 17.8451 20.8833 17.4319 20.9266 16.9607L21.908 6.26854C21.9513 5.79765 22.4071 5.44605 22.9381 5.48543C23.4636 5.52425 23.8548 5.93749 23.8116 6.40896L22.8302 17.1011C22.7894 17.5483 22.3715 17.8871 21.8793 17.8871Z" fill="#00462D"/>
<path d="M12.7165 17.8874C12.2358 17.8874 11.822 17.5629 11.7685 17.1246L10.4599 6.43241C10.4023 5.96238 10.7808 5.53971 11.305 5.48806C11.8293 5.43669 12.3007 5.77573 12.3584 6.24577L13.667 16.9379C13.7246 17.4077 13.3461 17.8309 12.8218 17.8826C12.7865 17.8857 12.7515 17.8874 12.7165 17.8874Z" fill="#00462D"/>
<path d="M27.1989 12.541H6.74329C6.21583 12.541 5.78833 12.1577 5.78833 11.6848C5.78833 11.2119 6.21583 10.8286 6.74329 10.8286H27.1992C27.7266 10.8286 28.1542 11.2119 28.1542 11.6848C28.1542 12.1577 27.7266 12.541 27.1989 12.541Z" fill="#00462D"/>
<path d="M11.1318 23.0541C12.3624 23.0541 13.36 22.1596 13.36 21.0563C13.36 19.953 12.3624 19.0586 11.1318 19.0586C9.90118 19.0586 8.90356 19.953 8.90356 21.0563C8.90356 22.1596 9.90118 23.0541 11.1318 23.0541Z" fill="#248960"/>
<path d="M23.8742 23.0541C25.1049 23.0541 26.1025 22.1596 26.1025 21.0563C26.1025 19.953 25.1049 19.0586 23.8742 19.0586C22.6436 19.0586 21.646 19.953 21.646 21.0563C21.646 22.1596 22.6436 23.0541 23.8742 23.0541Z" fill="#248960"/>
</svg>
