<svg width="50" height="31" viewBox="0 0 50 31" fill="none" xmlns="http://www.w3.org/2000/svg">
<g clip-path="url(#clip0_37_866)">
<mask id="mask0_37_866" style="mask-type:luminance" maskUnits="userSpaceOnUse" x="5" y="9" width="40" height="12">
<path d="M25.6607 13.1281C25.6388 14.6851 27.2025 15.5541 28.3806 16.0707C29.5909 16.6008 29.9975 16.9407 29.9928 17.4147C29.9836 18.1402 29.0273 18.4604 28.1322 18.4729C26.5708 18.4947 25.663 18.0935 24.9412 17.79L24.3787 20.1588C25.1029 20.4592 26.4437 20.7212 27.8343 20.7326C31.0981 20.7326 33.2336 19.2826 33.2451 17.0343C33.2578 14.181 28.8599 14.023 28.8899 12.7476C28.9003 12.361 29.3103 11.9483 30.2088 11.8433C30.6535 11.7903 31.8812 11.7498 33.2729 12.3267L33.8191 10.0347C33.0707 9.78939 32.1087 9.55447 30.911 9.55447C27.8389 9.55447 25.678 11.0242 25.6607 13.1281ZM39.0683 9.75197C38.4724 9.75197 37.97 10.0648 37.7459 10.5451L33.0835 20.5642H36.345L36.9941 18.95H40.9797L41.3562 20.5642H44.2309L41.7224 9.75197H39.0683ZM39.5245 12.6728L40.4658 16.7328H37.888L39.5245 12.6728ZM21.7062 9.75197L19.1353 20.5642H22.2432L24.813 9.75197H21.7062ZM17.1084 9.75197L13.8734 17.1112L12.5649 10.8538C12.4113 10.1553 11.805 9.75197 11.1316 9.75197H5.84321L5.76929 10.0659C6.85492 10.2779 8.08839 10.6199 8.83563 10.9858C9.29299 11.2093 9.42349 11.4047 9.57363 11.9358L12.0521 20.5642H15.3367L20.3723 9.75197H17.1084Z" fill="white"/>
</mask>
<g mask="url(#mask0_37_866)">
<path d="M1.7417 10.8895L39.6377 -1.67112L48.2589 19.398L10.3633 31.9586" fill="url(#paint0_linear_37_866)"/>
</g>
</g>
<rect x="0.25" y="0.393555" width="49.5" height="29.5" rx="5.75" stroke="#999696" stroke-width="0.5"/>
<defs>
<linearGradient id="paint0_linear_37_866" x1="9.25335" y1="20.3929" x2="40.7848" y2="7.49001" gradientUnits="userSpaceOnUse">
<stop stop-color="#222357"/>
<stop offset="1" stop-color="#254AA5"/>
</linearGradient>
<clipPath id="clip0_37_866">
<rect y="0.143555" width="50" height="30" rx="6" fill="white"/>
</clipPath>
</defs>
</svg>
